<?xml version="1.0" encoding="UTF-8"?>
<!DOCTYPE svg PUBLIC "-//W3C//DTD SVG 1.1//EN" "http://www.w3.org/Graphics/SVG/1.1/DTD/svg11.dtd">
<!-- Creator: CorelDRAW X5 -->
<svg xmlns="http://www.w3.org/2000/svg" xml:space="preserve" width="46mm" height="16mm" style="shape-rendering:geometricPrecision; text-rendering:geometricPrecision; image-rendering:optimizeQuality; fill-rule:evenodd; clip-rule:evenodd"
viewBox="0 0 4600 1600"
 xmlns:xlink="http://www.w3.org/1999/xlink">
 <defs>
  <style type="text/css">
   <![CDATA[
    .fil0 {fill:#FEFEFE;fill-rule:nonzero}
   ]]>
  </style>
 </defs>
 <g id="Warstwa_x0020_1">
  <metadata id="CorelCorpID_0Corel-Layer"/>
  <path class="fil0" d="M4480 240c-22,0 -41,-8 -56,-24 -16,-16 -24,-35 -24,-58 0,-25 8,-44 24,-59 16,-14 35,-21 57,-21 21,0 39,7 56,21 16,14 24,34 24,59 0,23 -8,42 -24,58 -16,16 -35,24 -58,24z"/>
  <path class="fil0" d="M4482 1204c-18,0 -32,-5 -42,-16 -10,-10 -16,-24 -16,-42l0 -695c0,-18 5,-32 16,-42 10,-10 24,-16 42,-16 17,0 30,5 41,16 10,10 16,24 16,42l0 695c0,18 -5,32 -16,42 -10,10 -24,16 -41,16z"/>
  <path class="fil0" d="M4157 1197c-13,11 -26,16 -40,14 -14,-1 -26,-9 -36,-21l-330 -406 80 -71 333 410c10,12 14,24 13,38 -1,13 -8,25 -21,36z"/>
  <path class="fil0" d="M3609 1204c-17,0 -30,-5 -41,-16 -10,-10 -16,-24 -16,-41l0 -1045c0,-17 5,-30 16,-41 10,-10 24,-16 41,-16 17,0 30,5 41,16 10,10 16,24 16,41l0 1045c0,17 -5,30 -16,41 -10,10 -24,16 -41,16z"/>
  <path class="fil0" d="M3646 933l-70 -76 507 -458c12,-11 24,-16 37,-16 13,0 25,7 36,19 11,12 16,24 16,38 -1,13 -7,25 -19,35l-507 458z"/>
  <path class="fil0" d="M2607 1204c-18,0 -32,-5 -42,-16 -10,-10 -16,-24 -16,-41l0 -696c0,-18 5,-32 16,-42 10,-10 24,-16 42,-16 17,0 30,5 41,16 10,10 16,24 16,42l0 696c0,17 -5,30 -16,41 -10,10 -24,16 -41,16z"/>
  <path class="fil0" d="M3244 1204c-17,0 -31,-5 -41,-16 -11,-11 -16,-24 -16,-40l0 -385c0,-61 -12,-112 -35,-151 -23,-40 -55,-69 -95,-89 -40,-20 -85,-30 -136,-30 -48,0 -92,9 -131,28 -39,19 -70,44 -93,77 -23,33 -34,70 -34,111l-81 0c2,-62 19,-118 50,-167 32,-49 74,-87 126,-116 52,-28 111,-42 175,-42 70,0 133,15 188,44 55,29 99,72 131,128 32,56 48,125 48,206l0 385c0,16 -5,29 -16,40 -11,11 -24,16 -40,16z"/>
  <path class="fil0" d="M2201 240c-22,0 -41,-8 -56,-24 -16,-16 -24,-35 -24,-58 0,-25 8,-44 24,-59 16,-14 35,-21 57,-21 21,0 39,7 56,21 16,14 24,34 24,59 0,23 -8,42 -24,58 -16,16 -35,24 -58,24z"/>
  <path class="fil0" d="M2203 1204c-18,0 -32,-5 -42,-16 -10,-10 -16,-24 -16,-42l0 -695c0,-18 5,-32 16,-42 10,-10 24,-16 42,-16 17,0 30,5 41,16 10,10 16,24 16,42l0 695c0,18 -5,32 -16,42 -10,10 -24,16 -41,16z"/>
  <path class="fil0" d="M1878 1204c-40,0 -75,-11 -106,-33 -31,-22 -55,-52 -73,-90 -17,-39 -26,-83 -26,-133l0 -845c0,-17 5,-30 16,-41 10,-10 24,-16 41,-16 17,0 30,5 41,16 10,10 16,24 16,41l0 845c0,42 9,77 26,104 17,27 39,40 66,40l37 0c15,0 27,5 36,16 9,10 13,24 13,41 0,17 -6,30 -19,41 -12,10 -28,16 -48,16l-19 0z"/>
  <path class="fil0" d="M1087 386c79,0 149,18 211,53 62,36 110,84 146,147 36,62 54,133 55,213 0,79 -18,150 -54,212 -36,62 -85,111 -147,147 -62,36 -132,53 -211,53l0 -104c57,0 109,-13 154,-40 45,-27 81,-63 107,-110 26,-46 39,-99 39,-159 0,-59 -13,-112 -39,-159 -26,-47 -61,-84 -107,-110 -45,-27 -97,-40 -154,-40l-150 0c-57,0 -109,13 -154,40 -45,27 -81,63 -107,110 -26,47 -39,100 -39,159l-111 0c0,-80 18,-151 53,-213 36,-62 84,-111 147,-147 62,-36 133,-53 212,-53l150 0z"/>
  <path class="fil0" d="M96 1551c-18,0 -32,-5 -42,-16 -10,-10 -16,-24 -16,-42l0 -699c1,-77 20,-146 56,-208 36,-62 85,-110 147,-146 62,-36 131,-53 208,-53l0 104c-56,0 -107,14 -153,41 -45,27 -81,64 -107,110 -26,46 -39,99 -39,159 0,58 13,111 39,158 26,47 61,84 107,110 45,27 96,40 153,40l150 0c57,0 109,-13 154,-40 45,-27 81,-63 107,-110 26,-47 39,-100 39,-158l113 0c0,78 -18,148 -53,210 -35,62 -83,111 -143,147 -60,36 -128,54 -204,54 -4,0 -9,0 -13,0l-150 0c-61,-2 -117,-16 -167,-42 -54,-28 -97,-65 -130,-112l0 436c0,18 -5,32 -16,42 -10,10 -24,16 -41,16z"/>
  <path class="fil0" d="M2627 1552c-15,0 -28,-3 -39,-10 -11,-7 -20,-16 -27,-27 -6,-12 -10,-25 -10,-40 0,-15 3,-29 10,-40 6,-12 15,-21 27,-27 11,-7 24,-10 39,-10 15,0 28,3 39,10 11,7 20,16 27,27 6,12 10,25 10,40 0,15 -3,28 -10,40 -6,12 -15,21 -27,27 -11,7 -24,10 -39,10zm0 -25c9,0 18,-2 25,-7 7,-4 13,-11 17,-18 4,-8 6,-17 6,-27 0,-10 -2,-19 -6,-27 -4,-8 -10,-14 -17,-19 -7,-4 -16,-7 -25,-7 -10,0 -18,2 -25,7 -7,4 -13,11 -17,19 -4,8 -6,17 -6,27 0,10 2,19 6,27 4,8 10,14 17,18 7,4 16,7 25,7z"/>
  <path id="1" class="fil0" d="M2871 1551c-4,0 -7,-1 -10,-4 -3,-3 -4,-6 -4,-10l0 -69c0,-11 -2,-19 -6,-26 -4,-7 -9,-12 -15,-15 -6,-3 -14,-5 -22,-5 -8,0 -15,2 -21,5 -6,3 -11,7 -15,13 -4,5 -5,11 -5,18l-17 0c0,-12 3,-22 8,-31 6,-9 13,-17 23,-22 10,-5 21,-8 33,-8 13,0 24,3 34,8 10,6 18,14 24,24 6,11 9,24 9,39l0 69c0,4 -1,8 -4,10 -3,3 -6,4 -10,4zm-113 0c-4,0 -7,-1 -10,-4 -3,-3 -4,-6 -4,-10l0 -125c0,-4 1,-8 4,-10 3,-3 6,-4 10,-4 4,0 8,1 10,4 3,3 4,6 4,10l0 125c0,4 -1,8 -4,10 -3,3 -6,4 -10,4z"/>
  <path id="12" class="fil0" d="M3001 1552c-15,0 -29,-3 -40,-10 -12,-7 -21,-16 -28,-27 -7,-12 -10,-25 -10,-40 0,-15 3,-29 9,-40 6,-12 15,-21 26,-27 11,-7 24,-10 38,-10 14,0 26,3 37,10 10,6 18,15 23,27 5,11 8,24 8,39 0,4 -1,6 -4,9 -2,2 -5,3 -9,3l-110 0 0 -22 110 0 -11 8c0,-9 -2,-18 -5,-25 -3,-7 -8,-13 -15,-17 -6,-4 -14,-6 -23,-6 -10,0 -19,2 -27,7 -7,5 -13,11 -17,19 -4,8 -6,17 -6,28 0,10 2,19 7,27 5,8 11,14 19,19 8,5 17,7 28,7 6,0 11,-1 17,-3 6,-2 11,-5 14,-7 3,-2 6,-3 9,-3 3,0 6,1 8,3 3,3 5,6 5,9 0,3 -1,6 -4,9 -6,5 -14,9 -23,12 -9,3 -18,5 -26,5z"/>
  <path id="123" class="fil0" d="M3217 1551c-8,0 -15,-2 -21,-7 -6,-4 -11,-11 -15,-18 -3,-8 -5,-17 -5,-27l0 -153c0,-4 1,-7 4,-10 3,-3 6,-4 10,-4 4,0 7,1 10,4 3,3 4,6 4,10l0 153c0,7 1,13 4,17 3,4 6,7 10,7l7 0c4,0 7,1 9,4 2,3 3,6 3,10 0,4 -2,7 -5,10 -3,3 -8,4 -13,4l-1 0z"/>
  <path id="1234" class="fil0" d="M3280 1551c-4,0 -7,-1 -10,-4 -3,-3 -4,-6 -4,-10l0 -124c0,-4 1,-8 4,-10 3,-3 6,-4 10,-4 4,0 8,1 10,4 3,3 4,6 4,10l0 124c0,4 -1,8 -4,10 -3,3 -6,4 -10,4zm0 -178c-5,0 -9,-2 -13,-5 -4,-4 -5,-8 -5,-13 0,-5 2,-9 5,-13 4,-4 8,-5 13,-5 5,0 9,2 13,5 4,4 5,8 5,13 0,5 -2,9 -5,13 -4,4 -8,5 -13,5z"/>
  <path id="12345" class="fil0" d="M3473 1551c-4,0 -7,-1 -10,-4 -3,-3 -4,-6 -4,-10l0 -69c0,-11 -2,-19 -6,-26 -4,-7 -9,-12 -15,-15 -6,-3 -14,-5 -22,-5 -8,0 -15,2 -21,5 -6,3 -11,7 -15,13 -4,5 -5,11 -5,18l-17 0c0,-12 3,-22 8,-31 6,-9 13,-17 23,-22 10,-5 21,-8 33,-8 13,0 24,3 34,8 10,6 18,14 24,24 6,11 9,24 9,39l0 69c0,4 -1,8 -4,10 -3,3 -6,4 -10,4zm-113 0c-4,0 -7,-1 -10,-4 -3,-3 -4,-6 -4,-10l0 -125c0,-4 1,-8 4,-10 3,-3 6,-4 10,-4 4,0 8,1 10,4 3,3 4,6 4,10l0 125c0,4 -1,8 -4,10 -3,3 -6,4 -10,4z"/>
  <path id="123456" class="fil0" d="M3559 1495l-17 -19 84 -77c3,-3 6,-4 9,-4 3,0 6,2 9,4 3,3 4,6 4,9 0,3 -2,6 -4,9l-84 77zm-13 56c-4,0 -7,-1 -10,-4 -2,-3 -4,-6 -4,-10l0 -191c0,-4 1,-7 4,-10 2,-3 6,-4 10,-4 4,0 7,1 10,4 2,3 4,6 4,10l0 191c0,4 -1,7 -4,10 -2,3 -6,4 -10,4zm98 -1c-3,2 -6,4 -10,3 -4,0 -7,-2 -9,-5l-56 -70 19 -18 57 72c2,3 3,6 3,10 0,3 -2,6 -5,9z"/>
  <path id="1234567" class="fil0" d="M3786 1551c-4,0 -7,-1 -10,-4 -3,-3 -4,-6 -4,-10l0 -124c0,-4 1,-8 4,-10 3,-3 6,-4 10,-4 4,0 8,1 10,4 3,3 4,6 4,10l0 124c0,4 -1,8 -4,10 -3,3 -6,4 -10,4zm0 -178c-5,0 -9,-2 -13,-5 -4,-4 -5,-8 -5,-13 0,-5 2,-9 5,-13 4,-4 8,-5 13,-5 5,0 9,2 13,5 4,4 5,8 5,13 0,5 -2,9 -5,13 -4,4 -8,5 -13,5z"/>
  <path id="12345678" class="fil0" d="M3978 1551c-4,0 -7,-1 -10,-4 -3,-3 -4,-6 -4,-10l0 -69c0,-11 -2,-19 -6,-26 -4,-7 -9,-12 -15,-15 -6,-3 -14,-5 -22,-5 -8,0 -15,2 -21,5 -6,3 -11,7 -15,13 -4,5 -5,11 -5,18l-17 0c0,-12 3,-22 8,-31 6,-9 13,-17 23,-22 10,-5 21,-8 33,-8 13,0 24,3 34,8 10,6 18,14 24,24 6,11 9,24 9,39l0 69c0,4 -1,8 -4,10 -3,3 -6,4 -10,4zm-113 0c-4,0 -7,-1 -10,-4 -3,-3 -4,-6 -4,-10l0 -125c0,-4 1,-8 4,-10 3,-3 6,-4 10,-4 4,0 8,1 10,4 3,3 4,6 4,10l0 125c0,4 -1,8 -4,10 -3,3 -6,4 -10,4z"/>
  <path id="123456789" class="fil0" d="M4194 1552c-14,0 -27,-3 -38,-10 -11,-7 -20,-16 -27,-28 -7,-12 -10,-25 -10,-40l0 -127c0,-4 1,-8 4,-10 3,-3 6,-4 10,-4 4,0 8,1 10,4 3,3 4,6 4,10l0 75c6,-8 14,-14 23,-19 9,-5 19,-7 30,-7 13,0 25,3 36,10 11,7 19,16 25,28 6,12 9,25 9,40 0,15 -3,28 -10,40 -7,12 -16,21 -27,28 -11,7 -24,10 -39,10zm0 -25c9,0 18,-2 25,-7 7,-5 13,-11 17,-19 4,-8 6,-17 6,-27 0,-10 -2,-19 -6,-27 -4,-8 -10,-14 -17,-19 -7,-5 -16,-7 -25,-7 -9,0 -17,2 -25,7 -7,5 -13,11 -17,19 -4,8 -6,17 -6,27 0,10 2,19 6,27 4,8 10,14 17,19 7,5 16,7 25,7z"/>
  <path id="12345678910" class="fil0" d="M4328 1551c-4,0 -7,-1 -10,-4 -3,-3 -4,-6 -4,-10l0 -124c0,-4 1,-8 4,-10 3,-3 6,-4 10,-4 4,0 8,1 10,4 3,3 4,6 4,10l0 124c0,4 -1,8 -4,10 -3,3 -6,4 -10,4zm0 -178c-5,0 -9,-2 -13,-5 -4,-4 -5,-8 -5,-13 0,-5 2,-9 5,-13 4,-4 8,-5 13,-5 5,0 9,2 13,5 4,4 5,8 5,13 0,5 -2,9 -5,13 -4,4 -8,5 -13,5z"/>
  <path id="1234567891011" class="fil0" d="M4462 1552c-15,0 -28,-3 -39,-10 -11,-7 -20,-16 -27,-27 -6,-12 -10,-25 -10,-40 0,-15 3,-29 10,-40 6,-12 15,-21 27,-27 11,-7 24,-10 39,-10 15,0 28,3 39,10 11,7 20,16 27,27 6,12 10,25 10,40 0,15 -3,28 -10,40 -6,12 -15,21 -27,27 -11,7 -24,10 -39,10zm0 -25c9,0 18,-2 25,-7 7,-4 13,-11 17,-18 4,-8 6,-17 6,-27 0,-10 -2,-19 -6,-27 -4,-8 -10,-14 -17,-19 -7,-4 -16,-7 -25,-7 -10,0 -18,2 -25,7 -7,4 -13,11 -17,19 -4,8 -6,17 -6,27 0,10 2,19 6,27 4,8 10,14 17,18 7,4 16,7 25,7z"/>
 </g>
</svg>
